<svg width="428" height="428" viewBox="0 0 428 428" fill="none" xmlns="http://www.w3.org/2000/svg">
<path d="M213.999 120.25C204.33 120.25 195.057 124.091 188.219 130.928C181.382 137.766 177.541 147.039 177.541 156.708C177.541 166.378 181.382 175.651 188.219 182.488C195.057 189.326 204.33 193.167 213.999 193.167C223.669 193.167 232.942 189.326 239.779 182.488C246.617 175.651 250.458 166.378 250.458 156.708C250.458 147.039 246.617 137.766 239.779 130.928C232.942 124.091 223.669 120.25 213.999 120.25Z" fill="black"/>
<path d="M243.896 7.22908C234.56 2.77086 224.345 0.457031 214 0.457031C203.654 0.457031 193.44 2.77086 184.104 7.22908C175.896 11.1666 168.375 17.5832 157.854 26.5624L156.208 27.9374C147.125 36.1253 135.504 40.9429 123.292 41.5832L121.167 41.7499C107.375 42.8541 97.5207 43.6249 88.9374 46.6666C79.1822 50.113 70.3213 55.6977 63.0037 63.0117C55.6861 70.3258 50.097 79.1839 46.6457 88.9374C43.6249 97.5208 42.8541 107.375 41.7499 121.167L41.5832 123.292C40.9429 135.504 36.1253 147.125 27.9374 156.208L26.5624 157.833C17.5832 168.375 11.1457 175.896 7.22908 184.104C2.77086 193.44 0.457031 203.654 0.457031 214C0.457031 224.345 2.77086 234.56 7.22908 243.896C11.1666 252.104 17.5832 259.625 26.5624 270.146L27.9374 271.792C36.4791 281.792 40.5207 291.354 41.5832 304.708L41.7499 306.833C42.8541 320.625 43.6249 330.479 46.6666 339.062C50.113 348.818 55.6977 357.679 63.0117 364.996C70.3258 372.314 79.1839 377.903 88.9374 381.354C90.6319 381.937 92.3888 382.451 94.2082 382.896L94.2291 369.458C98.0416 294.896 157.167 257.958 214 257.958C270.833 257.958 329.958 294.896 333.771 369.458V382.896C335.604 382.451 337.368 381.93 339.062 381.333C348.818 377.887 357.679 372.302 364.996 364.988C372.314 357.674 377.903 348.816 381.354 339.062C384.375 330.479 385.146 320.625 386.25 306.833L386.417 304.708C387.458 291.604 391.375 282 400.062 271.792L401.437 270.146C410.417 259.625 416.854 252.104 420.771 243.896C425.229 234.56 427.543 224.345 427.543 214C427.543 203.654 425.229 193.44 420.771 184.104C416.833 175.896 410.417 168.375 401.437 157.854L400.062 156.208C391.875 147.125 387.057 135.504 386.417 123.292L386.25 121.167C385.146 107.375 384.375 97.5208 381.333 88.9374C377.887 79.1822 372.302 70.3213 364.988 63.0037C357.674 55.6861 348.816 50.097 339.062 46.6457C330.479 43.6249 320.625 42.8541 306.833 41.7499L304.708 41.5832C292.496 40.9429 280.875 36.1253 271.792 27.9374L270.146 26.5624C259.625 17.5832 252.104 11.1457 243.896 7.22908ZM146.292 156.708C146.292 138.751 153.425 121.529 166.123 108.831C178.821 96.1334 196.043 88.9999 214 88.9999C231.957 88.9999 249.179 96.1334 261.877 108.831C274.575 121.529 281.708 138.751 281.708 156.708C281.708 174.666 274.575 191.887 261.877 204.585C249.179 217.283 231.957 224.417 214 224.417C196.043 224.417 178.821 217.283 166.123 204.585C153.425 191.887 146.292 174.666 146.292 156.708Z" fill="black"/>
<path d="M302.667 386.604L302.563 371.041C299.771 316.708 258.042 289.208 214.001 289.208C169.959 289.208 128.23 316.708 125.438 371.041C125.417 371.458 125.376 376.791 125.334 386.604C137.417 387.875 146.563 391.812 156.209 400.062L157.834 401.437C168.376 410.416 175.896 416.854 184.105 420.77C193.44 425.229 203.655 427.543 214.001 427.543C224.346 427.543 234.561 425.229 243.896 420.77C252.105 416.833 259.626 410.416 270.146 401.437L271.792 400.062C281.271 391.979 290.355 387.916 302.667 386.604Z" fill="black"/>
</svg>
